<svg width="22" height="22" viewBox="0 0 22 22" fill="none" xmlns="http://www.w3.org/2000/svg"
     style="margin-left:-2px">
    <path class="circle"
          d="M9.5 20C9.77614 20 10 19.7761 10 19.5C10 19.2239 9.77614 19 9.5 19C9.22386 19 9 19.2239 9 19.5C9 19.7761 9.22386 20 9.5 20Z"
          fill="currentColor" stroke="currentColor" stroke-width="2" stroke-linecap="round" stroke-linejoin="round">
    </path>
    <path class="circle" d="M18.5 20C18.7761 20 19 19.7761 19 19.5C19 19.2239 18.7761 19 18.5 19C18.2239 19 18 19.2239
                18 19.5C18 19.7761 18.2239 20 18.5 20Z"
          fill="currentColor" stroke="currentColor" stroke-width="2" stroke-linecap="round" stroke-linejoin="round">
    </path>
    <path d="M3 3H6.27273L8.46545 13.7117C8.54027 14.08 8.7452 14.4109 9.04436 14.6464C9.34351 14.8818 9.71784 15.0069
            10.1018 14.9997H18.0545C18.4385 15.0069 18.8129 14.8818 19.112 14.6464C19.4112 14.4109 19.6161 14.08 19.6909
            13.7117L21 6.9999H7.09091"
          stroke="currentColor" stroke-width="2" stroke-linecap="round" stroke-linejoin="round" >
    </path>
</svg>